Coordinates
version=1
nRows=17
nColumns=40
inDegrees=yes

Units are S.I. units (second, meters, Newtons, ...)
If the header above contains a line with 'inDegrees', this indicates whether rotational values are in degrees (yes) or radians (no).

endheader
time	pelvis_tilt	pelvis_list	pelvis_rotation	pelvis_tx	pelvis_ty	pelvis_tz	hip_flexion_r	hip_adduction_r	hip_rotation_r	knee_angle_r	knee_angle_r_beta	ankle_angle_r	subtalar_angle_r	mtp_angle_r	hip_flexion_l	hip_adduction_l	hip_rotation_l	knee_angle_l	knee_angle_l_beta	ankle_angle_l	subtalar_angle_l	mtp_angle_l	lumbar_extension	lumbar_bending	lumbar_rotation	arm_flex_r	arm_add_r	arm_rot_r	elbow_flex_r	pro_sup_r	wrist_flex_r	wrist_dev_r	arm_flex_l	arm_add_l	arm_rot_l	elbow_flex_l	pro_sup_l	wrist_flex_l	wrist_dev_l
      5.49000000	     -3.58901060	      1.78002227	      0.62933050	      0.25187824	      0.94050315	     -1.21518116	      4.49185180	     -6.80262855	    -21.17542790	      6.59523477	      0.11510856	      1.66372752	      7.41882053	      0.00000000	      3.53334509	     -2.46158900	    -23.30262498	      4.79971399	      0.08377081	      0.29223033	     12.93301049	      0.00000000	      4.54515718	     -0.58058979	     -2.83107298	     44.99992434	    -14.99999999	     44.99992434	     75.00017585	     45.00000026	      0.00000000	      0.00000000	     44.99992434	    -14.99999999	     44.99992434	     75.00017585	     45.00000026	      0.00000000	      0.00000000
      5.49500000	     -3.51801278	      1.73423465	      0.64866788	      0.25196263	      0.94062299	     -1.21527349	      4.37373312	     -6.74191202	    -21.19324804	      6.52425862	      0.11386979	      1.61120723	      7.41970455	      0.00000000	      3.47575989	     -2.51734229	    -23.28411347	      4.85319733	      0.08470427	      0.33476539	     12.91173469	      0.00000000	      4.47565930	     -0.56380291	     -2.94990567	     44.99992434	    -14.99999999	     44.99992434	     75.00017585	     45.00000026	      0.00000000	      0.00000000	     44.99992434	    -14.99999999	     44.99992434	     75.00017585	     45.00000026	      0.00000000	      0.00000000
      5.50000000	     -3.49637111	      1.76154383	      0.59835154	      0.25211581	      0.94062368	     -1.21522804	      4.36898800	     -6.78212408	    -21.19966103	      6.57242815	      0.11471051	      1.65590453	      7.49161222	      0.00000000	      3.43280172	     -2.48850813	    -23.31895211	      4.84924965	      0.08463537	      0.35742247	     12.91363269	      0.00000000	      4.47715294	     -0.58140177	     -2.88098725	     44.99992434	    -14.99999999	     44.99992434	     75.00017585	     45.00000026	      0.00000000	      0.00000000	     44.99992434	    -14.99999999	     44.99992434	     75.00017585	     45.00000026	      0.00000000	      0.00000000
      5.50500000	     -3.59707270	      1.82634137	      0.62466681	      0.25233553	      0.94039508	     -1.21535821	      4.51563275	     -6.91089907	    -21.38121663	      6.71060766	      0.11712220	      1.79251809	      7.76380964	      0.00000000	      3.62726900	     -2.46982059	    -23.54750012	      5.07682196	      0.08860726	      0.49399311	     13.26804344	      0.00000000	      4.66368319	     -0.61362844	     -2.82686338	     44.99992434	    -14.99999999	     44.99992434	     75.00017585	     45.00000026	      0.00000000	      0.00000000	     44.99992434	    -14.99999999	     44.99992434	     75.00017585	     45.00000026	      0.00000000	      0.00000000
      5.51000000	     -3.46098510	      1.78200273	      0.54785008	      0.25242225	      0.94060280	     -1.21527046	      4.38233223	     -6.85331965	    -21.34235463	      6.72886049	      0.11744077	      1.81670794	      7.76185823	      0.00000000	      3.44141884	     -2.50920689	    -23.55161562	      5.02954511	      0.08778212	      0.52069362	     13.15152475	      0.00000000	      4.49244929	     -0.59745139	     -2.86602958	     44.99992434	    -14.99999999	     44.99992434	     75.00017585	     45.00000026	      0.00000000	      0.00000000	     44.99992434	    -14.99999999	     44.99992434	     75.00017585	     45.00000026	      0.00000000	      0.00000000
      5.51500000	     -3.54985717	      1.83641493	      0.50927082	      0.25262701	      0.94042680	     -1.21521354	      4.48691710	     -6.92078664	    -21.32756930	      6.75922796	      0.11797078	      1.87138820	      7.84660909	      0.00000000	      3.56312978	     -2.48262784	    -23.66968240	      5.13563408	      0.08963372	      0.57376802	     13.32672904	      0.00000000	      4.66059310	     -0.65340779	     -2.77323978	     44.99992434	    -14.99999999	     44.99992434	     75.00017585	     45.00000026	      0.00000000	      0.00000000	     44.99992434	    -14.99999999	     44.99992434	     75.00017585	     45.00000026	      0.00000000	      0.00000000
      5.52000000	     -3.55702387	      1.83433949	      0.53706989	      0.25275530	      0.94039166	     -1.21536321	      4.49876788	     -6.94224351	    -21.40497865	      6.80874955	      0.11883510	      1.92437270	      7.88439083	      0.00000000	      3.56984915	     -2.46912148	    -23.60316722	      5.13977703	      0.08970603	      0.60540008	     13.28120095	      0.00000000	      4.69000875	     -0.62324476	     -2.80847722	     44.99992434	    -14.99999999	     44.99992434	     75.00017585	     45.00000026	      0.00000000	      0.00000000	     44.99992434	    -14.99999999	     44.99992434	     75.00017585	     45.00000026	      0.00000000	      0.00000000
      5.52500000	     -3.48959385	      1.83821005	      0.52553234	      0.25289995	      0.94042750	     -1.21544889	      4.46598210	     -6.99837554	    -21.60221460	      6.93003514	      0.12095193	      2.03505198	      8.24193463	      0.00000000	      3.60335253	     -2.54588063	    -23.94529973	      5.43012176	      0.09477350	      0.78984512	     13.71036364	      0.00000000	      4.64030595	     -0.60874914	     -2.81867317	     44.99992434	    -14.99999999	     44.99992434	     75.00017585	     45.00000026	      0.00000000	      0.00000000	     44.99992434	    -14.99999999	     44.99992434	     75.00017585	     45.00000026	      0.00000000	      0.00000000
      5.53000000	     -3.38058172	      1.75649570	      0.44343871	      0.25292065	      0.94068658	     -1.21529232	      4.19306674	     -6.77402572	    -21.08713599	      6.52867908	      0.11394695	      1.70977121	      7.53794410	      0.00000000	      3.27731996	     -2.49772138	    -23.32887214	      4.95417673	      0.08646670	      0.51767836	     12.76467136	      0.00000000	      4.49044473	     -0.56198150	     -2.88121318	     44.99992434	    -14.99999999	     44.99992434	     75.00017585	     45.00000026	      0.00000000	      0.00000000	     44.99992434	    -14.99999999	     44.99992434	     75.00017585	     45.00000026	      0.00000000	      0.00000000
      5.53500000	     -3.32774824	      1.78733914	      0.37265135	      0.25306039	      0.94076983	     -1.21520176	      4.14444095	     -6.80363680	    -21.05055890	      6.53668730	      0.11408672	      1.71167032	      7.55749075	      0.00000000	      3.19255984	     -2.46321900	    -23.38001105	      4.93107776	      0.08606354	      0.49298746	     12.73994777	      0.00000000	      4.45324758	     -0.58457766	     -2.79725410	     44.99992434	    -14.99999999	     44.99992434	     75.00017585	     45.00000026	      0.00000000	      0.00000000	     44.99992434	    -14.99999999	     44.99992434	     75.00017585	     45.00000026	      0.00000000	      0.00000000
      5.54000000	     -3.34169589	      1.78773387	      0.34027021	      0.25322517	      0.94072104	     -1.21522014	      4.15193909	     -6.80437426	    -21.02065677	      6.53140343	      0.11399449	      1.72544039	      7.57253666	      0.00000000	      3.19382461	     -2.46026084	    -23.38315565	      4.93550078	      0.08614074	      0.51691045	     12.72778701	      0.00000000	      4.50188448	     -0.56880410	     -2.77420102	     44.99992434	    -14.99999999	     44.99992434	     75.00017585	     45.00000026	      0.00000000	      0.00000000	     44.99992434	    -14.99999999	     44.99992434	     75.00017585	     45.00000026	      0.00000000	      0.00000000
      5.54500000	     -3.75017544	      1.80334236	      0.26056811	      0.25314934	      0.94001098	     -1.21513609	      4.77896394	     -6.85791215	    -20.95850535	      6.86084180	      0.11974428	      1.79808122	      7.05538201	      0.00000000	      3.77251012	     -2.48233534	    -23.46739559	      5.24602471	      0.09156040	      0.66491187	     12.07903492	      0.00000000	      5.03933705	     -0.53636783	     -2.68533589	     44.99992434	    -14.99999999	     44.99992434	     75.00017585	     45.00000026	      0.00000000	      0.00000000	     44.99992434	    -14.99999999	     44.99992434	     75.00017585	     45.00000026	      0.00000000	      0.00000000
      5.55000000	     -3.24247842	      1.79355303	      0.26119022	      0.25348781	      0.94082834	     -1.21519782	      4.05126443	     -6.82162069	    -21.03888745	      6.56153393	      0.11452037	      1.77281340	      7.69989480	      0.00000000	      3.08622538	     -2.46846944	    -23.49591127	      5.00515317	      0.08735640	      0.59169611	     12.75724859	      0.00000000	      4.42239625	     -0.56020166	     -2.73344622	     44.99992434	    -14.99999999	     44.99992434	     75.00017585	     45.00000026	      0.00000000	      0.00000000	     44.99992434	    -14.99999999	     44.99992434	     75.00017585	     45.00000026	      0.00000000	      0.00000000
      5.55500000	     -3.24514393	      1.80746462	      0.22169581	      0.25363260	      0.94081553	     -1.21520657	      4.03991518	     -6.82876960	    -20.96727407	      6.53133495	      0.11399330	      1.75283564	      7.63880872	      0.00000000	      3.06959905	     -2.44551584	    -23.50242208	      4.98592316	      0.08702078	      0.57568258	     12.69456641	      0.00000000	      4.45683565	     -0.55591167	     -2.71428789	     44.99992434	    -14.99999999	     44.99992434	     75.00017585	     45.00000026	      0.00000000	      0.00000000	     44.99992434	    -14.99999999	     44.99992434	     75.00017585	     45.00000026	      0.00000000	      0.00000000
      5.56000000	     -3.67494113	      1.82191504	      0.14878437	      0.25355715	      0.94007011	     -1.21515456	      4.69216040	     -6.88181629	    -20.90228924	      6.86565574	      0.11982830	      1.83212920	      7.11009127	      0.00000000	      3.67842383	     -2.46845672	    -23.59010078	      5.31646519	      0.09278982	      0.73539133	     12.04215753	      0.00000000	      5.02125928	     -0.52945009	     -2.62098844	     44.99992434	    -14.99999999	     44.99992434	     75.00017585	     45.00000026	      0.00000000	      0.00000000	     44.99992434	    -14.99999999	     44.99992434	     75.00017585	     45.00000026	      0.00000000	      0.00000000
      5.56500000	     -3.17643891	      1.81112952	      0.13111377	      0.25389961	      0.94087758	     -1.21513544	      3.96527730	     -6.83060292	    -20.94633100	      6.53343698	      0.11402999	      1.77501050	      7.70086035	      0.00000000	      2.97376757	     -2.44936517	    -23.56732418	      5.01293611	      0.08749224	      0.62586660	     12.68695497	      0.00000000	      4.42360557	     -0.57120594	     -2.67165018	     44.99992434	    -14.99999999	     44.99992434	     75.00017585	     45.00000026	      0.00000000	      0.00000000	     44.99992434	    -14.99999999	     44.99992434	     75.00017585	     45.00000026	      0.00000000	      0.00000000
      5.57000000	     -3.18914313	      1.82770559	      0.11031005	      0.25405685	      0.94083095	     -1.21523644	      3.98508323	     -6.86593591	    -20.94522176	      6.56591386	      0.11459682	      1.81013328	      7.76090308	      0.00000000	      2.98996705	     -2.42788860	    -23.62797418	      5.04293301	      0.08801578	      0.65500540	     12.73072485	      0.00000000	      4.46199632	     -0.55974196	     -2.67544983	     44.99992434	    -14.99999999	     44.99992434	     75.00017585	     45.00000026	      0.00000000	      0.00000000	     44.99992434	    -14.99999999	     44.99992434	     75.00017585	     45.00000026	      0.00000000	      0.00000000
